<svg width="345" height="85" viewBox="0 0 345 85" fill="none" xmlns="http://www.w3.org/2000/svg">
<g clip-path="url(#clip0_1_74)">
<rect width="152" height="85" fill="#212121"/>
<path d="M37.544 19.968C37.544 19.7547 37.608 19.584 37.736 19.456C37.9067 19.2853 38.0987 19.2 38.312 19.2H47.4C47.6133 19.2 47.784 19.2853 47.912 19.456C48.0827 19.584 48.168 19.7547 48.168 19.968V63.232C48.168 63.4453 48.0827 63.6373 47.912 63.808C47.784 63.936 47.6133 64 47.4 64H38.696C38.2693 64 37.9707 63.8293 37.8 63.488L23.08 39.04C22.9947 38.912 22.9093 38.8693 22.824 38.912C22.7387 38.912 22.696 38.9973 22.696 39.168L22.76 63.232C22.76 63.4453 22.6747 63.6373 22.504 63.808C22.376 63.936 22.2053 64 21.992 64H12.904C12.6907 64 12.4987 63.936 12.328 63.808C12.2 63.6373 12.136 63.4453 12.136 63.232V19.968C12.136 19.7547 12.2 19.584 12.328 19.456C12.4987 19.2853 12.6907 19.2 12.904 19.2H21.672C22.0987 19.2 22.3973 19.3707 22.568 19.712L37.224 44.096C37.3093 44.224 37.3947 44.288 37.48 44.288C37.5653 44.2453 37.608 44.1387 37.608 43.968L37.544 19.968ZM69.231 64.512C65.391 64.512 62.127 63.488 59.439 61.44C56.751 59.392 54.959 56.6187 54.063 53.12C53.551 51.3707 53.295 49.4507 53.295 47.36C53.295 45.0133 53.5723 42.944 54.127 41.152C55.1083 37.7813 56.9217 35.1573 59.567 33.28C62.255 31.36 65.4977 30.4 69.295 30.4C73.0497 30.4 76.2283 31.36 78.831 33.28C81.4337 35.1573 83.247 37.76 84.271 41.088C84.8683 43.008 85.167 45.056 85.167 47.232C85.167 49.1947 84.9323 51.072 84.463 52.864C83.567 56.448 81.775 59.2853 79.087 61.376C76.399 63.4667 73.1137 64.512 69.231 64.512ZM69.231 55.424C70.4683 55.424 71.4923 55.04 72.303 54.272C73.1137 53.4613 73.711 52.3733 74.095 51.008C74.351 49.8987 74.479 48.6827 74.479 47.36C74.479 46.08 74.3297 44.8427 74.031 43.648C73.6897 42.3253 73.1137 41.3013 72.303 40.576C71.4923 39.8507 70.4683 39.488 69.231 39.488C66.7563 39.488 65.135 40.8747 64.367 43.648C64.111 44.672 63.983 45.9093 63.983 47.36C63.983 48.6827 64.111 49.8987 64.367 51.008C64.7083 52.3733 65.2843 53.4613 66.095 54.272C66.9483 55.04 67.9937 55.424 69.231 55.424ZM109.104 38.656C109.104 38.8693 109.019 39.0613 108.848 39.232C108.72 39.36 108.549 39.424 108.336 39.424H102.512C102.299 39.424 102.192 39.5307 102.192 39.744V51.392C102.192 53.824 103.173 55.04 105.136 55.04H107.504C107.717 55.04 107.888 55.1253 108.016 55.296C108.187 55.424 108.272 55.5947 108.272 55.808V63.232C108.272 63.7013 108.016 63.9787 107.504 64.064C105.456 64.1493 103.963 64.192 103.024 64.192C99.312 64.192 96.56 63.616 94.768 62.464C92.976 61.2693 92.0587 59.0293 92.016 55.744V39.744C92.016 39.5307 91.9093 39.424 91.696 39.424H88.048C87.8347 39.424 87.6427 39.36 87.472 39.232C87.344 39.0613 87.28 38.8693 87.28 38.656V31.68C87.28 31.4667 87.344 31.296 87.472 31.168C87.6427 30.9973 87.8347 30.912 88.048 30.912H91.696C91.9093 30.912 92.016 30.8053 92.016 30.592V22.848C92.016 22.6347 92.08 22.464 92.208 22.336C92.3787 22.1653 92.5707 22.08 92.784 22.08H101.424C101.637 22.08 101.808 22.1653 101.936 22.336C102.107 22.464 102.192 22.6347 102.192 22.848V30.592C102.192 30.8053 102.299 30.912 102.512 30.912H108.336C108.549 30.912 108.72 30.9973 108.848 31.168C109.019 31.296 109.104 31.4667 109.104 31.68V38.656ZM143.782 44.544C143.995 45.824 144.059 47.5093 143.974 49.6C143.931 50.112 143.654 50.368 143.142 50.368H123.622C123.536 50.368 123.451 50.4107 123.366 50.496C123.28 50.5387 123.259 50.6027 123.302 50.688C123.387 51.1573 123.6 51.776 123.942 52.544C124.454 53.44 125.222 54.1653 126.246 54.72C127.27 55.2747 128.528 55.552 130.022 55.552C132.71 55.552 134.822 54.6773 136.358 52.928C136.528 52.7147 136.72 52.608 136.934 52.608C137.147 52.608 137.318 52.6933 137.446 52.864L142.374 58.496C142.544 58.624 142.63 58.7947 142.63 59.008C142.63 59.1787 142.544 59.3493 142.374 59.52C140.88 61.1413 139.024 62.3787 136.806 63.232C134.63 64.0853 132.24 64.512 129.638 64.512C125.755 64.512 122.448 63.68 119.718 62.016C117.03 60.3093 115.088 57.9413 113.894 54.912C112.998 52.7787 112.549 50.112 112.549 46.912C112.549 44.6933 112.891 42.56 113.574 40.512C114.683 37.3547 116.496 34.88 119.014 33.088C121.574 31.2533 124.603 30.336 128.102 30.336C130.918 30.336 133.435 30.9547 135.654 32.192C137.872 33.3867 139.664 35.072 141.03 37.248C142.438 39.3813 143.355 41.8133 143.782 44.544ZM128.102 39.488C125.883 39.488 124.411 40.5333 123.686 42.624C123.515 43.0933 123.408 43.5413 123.366 43.968C123.28 44.1813 123.366 44.288 123.622 44.288H132.71C132.88 44.288 132.966 44.2027 132.966 44.032C132.966 43.6907 132.88 43.264 132.71 42.752C132.411 41.6853 131.856 40.8747 131.046 40.32C130.278 39.7653 129.296 39.488 128.102 39.488Z" fill="#CDC62B"/>
<path d="M186.982 19.968C186.982 19.7547 187.046 19.584 187.174 19.456C187.344 19.2853 187.536 19.2 187.75 19.2H196.838C197.051 19.2 197.222 19.2853 197.35 19.456C197.52 19.584 197.606 19.7547 197.606 19.968V63.232C197.606 63.4453 197.52 63.6373 197.35 63.808C197.222 63.936 197.051 64 196.838 64H188.134C187.707 64 187.408 63.8293 187.238 63.488L172.518 39.04C172.432 38.912 172.347 38.8693 172.262 38.912C172.176 38.912 172.134 38.9973 172.134 39.168L172.198 63.232C172.198 63.4453 172.112 63.6373 171.942 63.808C171.814 63.936 171.643 64 171.43 64H162.342C162.128 64 161.936 63.936 161.766 63.808C161.638 63.6373 161.574 63.4453 161.574 63.232V19.968C161.574 19.7547 161.638 19.584 161.766 19.456C161.936 19.2853 162.128 19.2 162.342 19.2H171.11C171.536 19.2 171.835 19.3707 172.006 19.712L186.662 44.096C186.747 44.224 186.832 44.288 186.918 44.288C187.003 44.2453 187.046 44.1387 187.046 43.968L186.982 19.968ZM218.669 64.512C214.829 64.512 211.565 63.488 208.877 61.44C206.189 59.392 204.397 56.6187 203.501 53.12C202.989 51.3707 202.733 49.4507 202.733 47.36C202.733 45.0133 203.01 42.944 203.565 41.152C204.546 37.7813 206.359 35.1573 209.005 33.28C211.693 31.36 214.935 30.4 218.733 30.4C222.487 30.4 225.666 31.36 228.269 33.28C230.871 35.1573 232.685 37.76 233.708 41.088C234.306 43.008 234.604 45.056 234.604 47.232C234.604 49.1947 234.37 51.072 233.901 52.864C233.005 56.448 231.213 59.2853 228.525 61.376C225.837 63.4667 222.551 64.512 218.669 64.512ZM218.669 55.424C219.906 55.424 220.93 55.04 221.741 54.272C222.551 53.4613 223.149 52.3733 223.533 51.008C223.789 49.8987 223.917 48.6827 223.917 47.36C223.917 46.08 223.767 44.8427 223.469 43.648C223.127 42.3253 222.551 41.3013 221.741 40.576C220.93 39.8507 219.906 39.488 218.669 39.488C216.194 39.488 214.573 40.8747 213.805 43.648C213.549 44.672 213.421 45.9093 213.421 47.36C213.421 48.6827 213.549 49.8987 213.805 51.008C214.146 52.3733 214.722 53.4613 215.533 54.272C216.386 55.04 217.431 55.424 218.669 55.424ZM258.324 31.68C258.324 31.4667 258.388 31.296 258.516 31.168C258.687 30.9973 258.879 30.912 259.092 30.912H268.18C268.393 30.912 268.564 30.9973 268.692 31.168C268.863 31.296 268.948 31.4667 268.948 31.68V63.232C268.948 63.4453 268.863 63.6373 268.692 63.808C268.564 63.936 268.393 64 268.18 64H259.092C258.879 64 258.687 63.936 258.516 63.808C258.388 63.6373 258.324 63.4453 258.324 63.232V60.992C258.324 60.864 258.281 60.7787 258.196 60.736C258.111 60.6933 258.025 60.736 257.94 60.864C256.233 63.296 253.545 64.512 249.876 64.512C246.633 64.512 244.009 63.488 242.004 61.44C239.999 59.392 238.996 56.5333 238.996 52.864V31.68C238.996 31.4667 239.06 31.296 239.188 31.168C239.359 30.9973 239.551 30.912 239.764 30.912H248.852C249.065 30.912 249.236 30.9973 249.364 31.168C249.535 31.296 249.62 31.4667 249.62 31.68V50.432C249.62 51.9253 250.004 53.12 250.772 54.016C251.54 54.912 252.585 55.36 253.908 55.36C255.103 55.36 256.084 54.9973 256.852 54.272C257.663 53.5467 258.153 52.5867 258.324 51.392V31.68ZM294.409 31.68C294.409 31.4667 294.473 31.296 294.601 31.168C294.772 30.9973 294.964 30.912 295.177 30.912H304.265C304.478 30.912 304.649 30.9973 304.777 31.168C304.948 31.296 305.033 31.4667 305.033 31.68V60.288C305.033 66.1333 303.348 70.3147 299.977 72.832C296.606 75.3493 292.34 76.608 287.177 76.608C285.257 76.608 283.23 76.4373 281.097 76.096C280.67 76.0533 280.457 75.776 280.457 75.264L280.777 67.328C280.777 67.0293 280.862 66.816 281.033 66.688C281.204 66.6027 281.417 66.6027 281.673 66.688C283.422 67.072 285.044 67.264 286.537 67.264C288.969 67.264 290.889 66.7093 292.297 65.6C293.705 64.4907 294.409 62.7413 294.409 60.352L293.961 60.8C292.425 62.336 290.206 63.104 287.305 63.104C284.489 63.104 281.908 62.4853 279.561 61.248C277.214 60.0107 275.529 57.8347 274.505 54.72C273.822 52.672 273.481 50.1547 273.481 47.168C273.481 43.8827 273.886 41.1947 274.697 39.104C275.678 36.4587 277.236 34.3467 279.369 32.768C281.545 31.1893 284.062 30.4 286.921 30.4C289.993 30.4 292.361 31.3387 294.025 33.216C294.11 33.3013 294.196 33.344 294.281 33.344C294.366 33.3013 294.409 33.216 294.409 33.088V31.68ZM293.833 51.904C294.217 50.9227 294.409 49.3227 294.409 47.104C294.409 45.952 294.366 45.056 294.281 44.416C294.196 43.7333 294.025 43.0933 293.769 42.496C293.428 41.5573 292.873 40.832 292.105 40.32C291.38 39.7653 290.484 39.488 289.417 39.488C287.412 39.488 285.982 40.4907 285.129 42.496C284.489 43.6907 284.169 45.2693 284.169 47.232C284.169 49.3227 284.446 50.8587 285.001 51.84C285.385 52.736 285.961 53.4613 286.729 54.016C287.497 54.5707 288.414 54.848 289.481 54.848C291.657 54.848 293.108 53.8667 293.833 51.904ZM329 30.4C332.328 30.4 335.058 31.4667 337.192 33.6C339.325 35.6907 340.392 38.5493 340.392 42.176V63.232C340.392 63.4453 340.306 63.6373 340.136 63.808C340.008 63.936 339.837 64 339.624 64H330.536C330.322 64 330.13 63.936 329.96 63.808C329.832 63.6373 329.768 63.4453 329.768 63.232V44.48C329.768 43.0293 329.362 41.8347 328.552 40.896C327.741 39.9573 326.696 39.488 325.416 39.488C324.093 39.488 323.026 39.9573 322.216 40.896C321.405 41.792 321 42.9867 321 44.48V63.232C321 63.4453 320.914 63.6373 320.744 63.808C320.616 63.936 320.445 64 320.232 64H311.144C310.93 64 310.738 63.936 310.568 63.808C310.44 63.6373 310.376 63.4453 310.376 63.232V19.968C310.376 19.7547 310.44 19.584 310.568 19.456C310.738 19.2853 310.93 19.2 311.144 19.2H320.232C320.445 19.2 320.616 19.2853 320.744 19.456C320.914 19.584 321 19.7547 321 19.968V34.048C321 34.2187 321.021 34.3253 321.064 34.368C321.149 34.368 321.234 34.304 321.32 34.176C322.941 31.6587 325.501 30.4 329 30.4Z" fill="#212121"/>
<path d="M9 70.4H145.637V73.6H9V70.4Z" fill="#CDC62B"/>
</g>
<defs>
<clipPath id="clip0_1_74">
<rect width="345" height="85" fill="white"/>
</clipPath>
</defs>
</svg>
